<svg xmlns="http://www.w3.org/2000/svg" width="21.746" height="22.708" viewBox="0 0 21.746 22.708">
  <path id="Icon_ionic-ios-search" data-name="Icon ionic-ios-search" d="M25.991,25.557l-6.048-6.373a9.279,9.279,0,0,0,1.9-5.646,8.862,8.862,0,0,0-8.67-9.045A8.867,8.867,0,0,0,4.5,13.544a8.862,8.862,0,0,0,8.67,9.045,8.418,8.418,0,0,0,5.465-2.022L24.643,26.9a.908.908,0,0,0,.674.3.9.9,0,0,0,.64-.266A1.009,1.009,0,0,0,25.991,25.557ZM13.17,20.645a6.623,6.623,0,0,1-4.814-2.081,7.316,7.316,0,0,1,0-10.039,6.608,6.608,0,0,1,9.627,0,7.316,7.316,0,0,1,0,10.039A6.623,6.623,0,0,1,13.17,20.645Z" transform="translate(-4.5 -4.493)" fill="#fff"/>
</svg>
